<?xml version="1.0" standalone="no"?><!DOCTYPE svg PUBLIC "-//W3C//DTD SVG 1.1//EN" "http://www.w3.org/Graphics/SVG/1.1/DTD/svg11.dtd"><svg t="1767700899122" class="icon" viewBox="0 0 1024 1024" version="1.1" xmlns="http://www.w3.org/2000/svg" p-id="1631" xmlns:xlink="http://www.w3.org/1999/xlink" width="200" height="200"><path d="M512 512m-512 0a512 512 0 1 0 1024 0 512 512 0 1 0-1024 0Z" fill="#FDEBED" p-id="1632"></path><path d="M691.2 704H332.8c-28.16 0-51.2-23.04-51.2-51.2V448h460.8v204.8c0 28.16-23.04 51.2-51.2 51.2z m25.6-281.6H281.6v-76.8c0-14.08 11.52-25.6 25.6-25.6h153.6c14.08 0 25.6 11.52 25.6 25.6v12.8h230.4c14.08 0 25.6 11.52 25.6 25.6v12.8c0 14.08-11.52 25.6-25.6 25.6z" fill="#EC3A4E" p-id="1633"></path></svg>